<?xml version="1.0" standalone="no"?>
<!DOCTYPE svg PUBLIC "-//W3C//DTD SVG 20010904//EN"
 "http://www.w3.org/TR/2001/REC-SVG-20010904/DTD/svg10.dtd">
<svg version="1.0" xmlns="http://www.w3.org/2000/svg"
 width="254.000000pt" height="221.000000pt" viewBox="0 0 254.000000 221.000000"
 preserveAspectRatio="xMidYMid meet">
<metadata>
Created by potrace 1.16, written by Peter Selinger 2001-2019
</metadata>
<g transform="translate(0.000000,221.000000) scale(0.100000,-0.100000)"
fill="#000000" stroke="none">
<path d="M289 2201 c-117 -6 -129 -8 -174 -36 -33 -21 -57 -47 -79 -85 l-31
-55 0 -860 0 -860 22 -40 c28 -52 68 -89 123 -114 44 -20 63 -21 745 -21 l700
-1 54 -34 c95 -61 169 -80 306 -80 99 0 131 4 187 23 174 60 312 200 369 374
35 107 34 263 -4 368 l-27 75 -2 441 -3 440 -30 59 c-37 73 -95 119 -167 135
-36 7 -210 10 -550 9 -446 -1 -500 0 -523 15 -14 9 -57 59 -96 111 -110 146
-92 140 -419 141 -151 0 -332 -2 -401 -5z m1643 -548 c16 -15 18 -36 18 -245
l0 -228 -38 0 c-83 0 -230 -56 -299 -114 -17 -14 -34 -26 -37 -26 -3 0 -6 134
-6 297 0 262 2 299 17 315 14 16 34 18 171 18 131 0 158 -3 174 -17z m-560
-260 c17 -15 18 -38 18 -327 0 -211 -4 -324 -12 -351 -7 -22 -12 -88 -12 -148
l0 -107 -157 0 c-130 0 -160 3 -173 16 -14 14 -16 69 -16 459 0 390 2 445 16
459 24 24 309 23 336 -1z m-548 -314 l26 -20 0 -284 c0 -244 -2 -286 -16 -299
-15 -16 -86 -21 -273 -19 -92 0 -91 -2 -91 308 0 149 4 275 10 290 14 37 39
42 187 43 118 1 134 -1 157 -19z m1281 -50 c139 -43 262 -175 297 -318 22 -94
23 -142 2 -232 -20 -90 -55 -151 -124 -219 -96 -95 -205 -135 -349 -128 -81 4
-98 8 -174 46 -103 51 -164 113 -214 217 -79 167 -46 375 80 512 127 138 294
180 482 122z"/>
<path d="M1917 913 c-4 -3 -7 -18 -7 -32 0 -21 -9 -30 -42 -46 -56 -27 -88
-75 -88 -132 0 -85 46 -131 152 -153 71 -14 108 -42 108 -80 0 -63 -97 -94
-145 -45 -14 13 -25 29 -25 35 0 5 -22 10 -50 10 -45 0 -50 -2 -50 -22 0 -40
36 -85 88 -109 42 -20 51 -29 54 -54 3 -28 6 -30 43 -30 36 0 40 3 45 29 4 23
12 32 37 38 44 11 99 69 114 118 10 33 9 46 -6 85 -23 62 -39 71 -201 114 -32
8 -45 18 -54 42 -18 43 11 83 64 87 41 4 63 -10 77 -46 8 -20 14 -23 56 -20
46 3 48 4 46 32 -3 36 -42 78 -94 101 -34 16 -39 22 -39 52 0 32 -2 33 -38 33
-21 0 -42 -3 -45 -7z"/>
</g>
</svg>
