<?xml version="1.0" encoding="UTF-8"?>
<svg version="1.1" xmlns="http://www.w3.org/2000/svg" width="254" height="221">
<path d="M0 0 C83.82 0 167.64 0 254 0 C254 72.93 254 145.86 254 221 C170.18 221 86.36 221 0 221 C0 148.07 0 75.14 0 0 Z " fill="#1B3649" transform="translate(0,0)"/>
<path d="M0 0 C1.31170166 0.00966797 1.31170166 0.00966797 2.64990234 0.01953125 C15.10639118 0.36675045 25.54902508 4.49572255 34.375 13.5 C39.9680208 19.89451287 44.56981712 26.10267607 46.375 34.5 C46.55546875 35.2734375 46.7359375 36.046875 46.921875 36.84375 C49.01812327 49.13210193 47.39421428 61.18808169 40.75 71.75 C32.97783505 82.59982881 23.40106155 89.39072979 10.375 92.5 C7.59750648 92.78605868 4.85326515 92.83457385 2.0625 92.8125 C1.31339355 92.80686035 0.56428711 92.8012207 -0.20751953 92.79541016 C-12.0927696 92.53574971 -23.04810557 88.01461961 -31.875 79.9375 C-41.73226645 69.35006566 -45.18034775 57.21016929 -44.9375 43.125 C-43.83345872 30.31812111 -38.05359591 19.02861156 -28.76171875 10.25 C-25.31994247 7.43114119 -21.67842718 5.31506312 -17.625 3.5 C-17.05604004 3.24105957 -16.48708008 2.98211914 -15.90087891 2.71533203 C-10.56135628 0.47419906 -5.76093867 -0.04463249 0 0 Z " fill="#E9E7E5" transform="translate(194.625,115.5)"/>
<path d="M0 0 C52.47 0 104.94 0 159 0 C159 51.15 159 102.3 159 155 C158.67 155 158.34 155 158 155 C157.89042969 154.3709375 157.78085938 153.741875 157.66796875 153.09375 C157.50941406 152.2378125 157.35085937 151.381875 157.1875 150.5 C157.03667969 149.6646875 156.88585937 148.829375 156.73046875 147.96875 C156.03946895 144.83145212 156.03946895 144.83145212 154.47740173 141.35945129 C152.80081032 136.92232902 152.58377577 132.98548114 152.63110352 128.2800293 C152.6254538 127.03193985 152.6254538 127.03193985 152.61968994 125.75863647 C152.61329147 123.96521311 152.61355533 122.17175578 152.61987495 120.37833214 C152.62904666 117.53062428 152.61869153 114.68356633 152.60325623 111.83589172 C152.56332964 103.74420087 152.56194799 95.65256407 152.56420898 87.56079102 C152.56426034 82.59770351 152.54496907 77.63496714 152.51487541 72.67197609 C152.50413244 69.88294094 152.51613171 67.0945998 152.52870178 64.30558777 C152.50725315 53.90228719 152.12554325 44.31364349 145.75 35.5625 C140.3234501 30.50594214 134.04319321 27.86895925 126.61784363 27.88215637 C125.74738907 27.88103851 124.87693451 27.87992065 123.98010254 27.87876892 C122.55945496 27.88427513 122.55945496 27.88427513 121.11010742 27.88989258 C119.03004454 27.88934995 116.94998168 27.88876295 114.86991882 27.88813782 C113.21698602 27.89028007 113.21698602 27.89028007 111.53066063 27.89246559 C105.69422167 27.89598542 99.8578791 27.87018662 94.02148438 27.84960938 C86.59488863 27.82526805 79.16857344 27.80958144 71.74194336 27.82495117 C65.7394659 27.83661064 59.73768414 27.81922169 53.73531532 27.78250694 C51.44963387 27.77389122 49.16388583 27.77597222 46.87822533 27.789011 C43.67740188 27.80590612 40.47877146 27.78570464 37.27807617 27.75708008 C36.33705048 27.77087204 35.39602478 27.784664 34.42648315 27.7988739 C28.60070901 27.69801001 25.53133488 26.59566594 21.34269333 22.48963642 C19.76473177 20.73898424 18.29479431 19.00826003 16.97265625 17.0546875 C16.48990234 16.37019531 16.00714844 15.68570312 15.50976562 14.98046875 C14.54251863 13.5733267 13.58159341 12.1618188 12.62695312 10.74609375 C9.00742884 5.64695036 5.78308037 3.4080572 0 1 C0 0.67 0 0.34 0 0 Z " fill="#EBE8E5" transform="translate(95,0)"/>
<path d="M0 0 C0.67671753 -0.00287018 1.35343506 -0.00574036 2.05065918 -0.00869751 C3.47958209 -0.01073647 4.90853302 -0.00521819 6.33740234 0.00732422 C8.52374725 0.02338239 10.70824379 0.00747216 12.89453125 -0.01171875 C14.28385824 -0.00973629 15.67318409 -0.00589254 17.0625 0 C18.32642578 0.00338379 19.59035156 0.00676758 20.89257812 0.01025391 C24.03125 0.3984375 24.03125 0.3984375 25.70414734 1.54988098 C27.59850846 4.18858686 27.40544287 6.13338581 27.40356445 9.36352539 C27.41290764 11.20673119 27.41290764 11.20673119 27.42243958 13.08717346 C27.4137447 14.43181763 27.40442596 15.77645788 27.39453125 17.12109375 C27.39401219 18.50532531 27.39453166 19.88955762 27.39604187 21.27378845 C27.3959521 24.17995163 27.38552292 27.08583771 27.36743164 29.99194336 C27.34489233 33.69142247 27.34417293 37.39049154 27.35094929 41.09002018 C27.35431744 43.95305428 27.34760371 46.81599746 27.33782005 49.67901421 C27.33216493 51.69836041 27.33339566 53.71772217 27.33479309 55.73707581 C27.28588473 62.15523265 26.91843282 68.10608248 25.47923279 74.36564636 C24.94696788 76.78088066 24.80114523 79.06099898 24.8359375 81.53125 C24.84560547 82.76875 24.84560547 82.76875 24.85546875 84.03125 C24.87222656 84.85367188 24.88898438 85.67609375 24.90625 86.5234375 C24.91527344 87.38453125 24.92429688 88.245625 24.93359375 89.1328125 C24.95680115 91.2214789 24.99265462 93.30999877 25.03125 95.3984375 C20.52892666 95.47260773 16.02695909 95.527048 11.52416992 95.56323242 C9.99253139 95.57831686 8.46093602 95.59878728 6.92944336 95.62475586 C4.72759346 95.66115597 2.52631467 95.67816663 0.32421875 95.69140625 C-0.36025833 95.70689011 -1.04473541 95.72237396 -1.74995422 95.73832703 C-4.32274909 95.73923731 -6.39838819 95.73521926 -8.64936829 94.40608215 C-10.77445398 91.17243348 -10.38477484 87.67991706 -10.35693359 83.93554688 C-10.36219055 83.07185989 -10.36744751 82.20817291 -10.37286377 81.3183136 C-10.38608258 78.45942169 -10.37731906 75.60108521 -10.3671875 72.7421875 C-10.36920769 70.758259 -10.37211868 68.77433123 -10.37588501 66.79040527 C-10.38031091 62.63086889 -10.37386871 58.47152567 -10.35986328 54.31201172 C-10.3427713 48.97514217 -10.35261105 43.63872519 -10.37058067 38.30187225 C-10.38141129 34.20469745 -10.37797548 30.10763028 -10.3701973 26.01045227 C-10.36819329 24.04242398 -10.37066156 22.07438597 -10.37763596 20.10636902 C-10.38523853 17.35775799 -10.37366308 14.60988412 -10.35693359 11.86132812 C-10.36300629 11.04461136 -10.36907898 10.22789459 -10.37533569 9.38642883 C-10.31355442 3.91889655 -10.31355442 3.91889655 -8.64065552 1.39376831 C-5.85653955 -0.26369162 -3.19703347 0.00855912 0 0 Z " fill="#EBE8E6" transform="translate(111.96875,79.6015625)"/>
<path d="M0 0 C0.33 0 0.66 0 1 0 C1 17.16 1 34.32 1 52 C-82.82 52 -166.64 52 -253 52 C-253 41.11 -253 30.22 -253 19 C-252.34 20.32 -251.68 21.64 -251 23 C-247.28799983 29.66857575 -243.56523333 34.34585659 -236.297369 37.36980438 C-231.1595992 38.77915569 -225.73781422 38.37284957 -220.45239258 38.32128906 C-219.08168716 38.3188426 -217.71097857 38.31781783 -216.340271 38.31809998 C-213.39810913 38.31627836 -210.45615907 38.30564412 -207.51404762 38.28842926 C-202.8516417 38.26240937 -198.18948361 38.26359631 -193.52702332 38.26971436 C-180.27205434 38.28327652 -167.01730958 38.26575867 -153.76245117 38.20947266 C-146.4341826 38.1785894 -139.10632306 38.17299406 -131.77801627 38.19435859 C-127.15359791 38.2064073 -122.53068192 38.18783345 -117.90645468 38.14587355 C-115.01469469 38.12710581 -112.12357896 38.13795052 -109.23184204 38.15672493 C-107.27558006 38.16095756 -105.31933574 38.13068348 -103.36332703 38.09892273 C-95.3601509 38.19085462 -90.27763415 39.85844746 -83.60814953 44.31513596 C-79.96209221 46.67048821 -76.18847053 47.95489219 -72 49 C-71.27941406 49.18304688 -70.55882812 49.36609375 -69.81640625 49.5546875 C-52.47354302 52.29683231 -37.05313133 48.74086734 -22.3359375 39.2890625 C-9.31821897 29.73736191 -2.52808651 15.63421918 0 0 Z " fill="#E9E7E4" transform="translate(253,169)"/>
<path d="M0 0 C0.7437085 0.00217529 1.48741699 0.00435059 2.25366211 0.0065918 C4.52116059 0.00974886 6.78735072 -0.01369197 9.0546875 -0.0390625 C10.49413898 -0.04133579 11.93359397 -0.04203885 13.37304688 -0.04101562 C14.68523193 -0.04399658 15.99741699 -0.04697754 17.34936523 -0.05004883 C20.59570312 0.32226562 20.59570312 0.32226562 22.27433777 1.50019836 C24.1002321 4.01797459 23.97647546 5.7521912 23.98388672 8.84765625 C23.9933432 9.97892944 24.00279968 11.11020264 24.01254272 12.27575684 C24.00647003 13.49766724 24.00039734 14.71957764 23.99414062 15.97851562 C23.9970108 17.23233032 23.99988098 18.48614502 24.00283813 19.7779541 C24.0048814 22.43122313 24.0008378 25.08366534 23.98681641 27.73681641 C23.96972399 31.13668196 23.97956629 34.53583708 23.9975338 37.93567657 C24.01098402 41.1791484 24.00156546 44.42253453 23.99414062 47.66601562 C24.00324966 49.49888123 24.00324966 49.49888123 24.01254272 51.36877441 C24.00308624 52.50004761 23.99362976 53.6313208 23.98388672 54.796875 C23.98149994 55.79376343 23.97911316 56.79065186 23.97665405 57.81774902 C23.59570312 60.32226562 23.59570312 60.32226562 22.27433777 62.14433289 C19.48104589 64.10444372 16.72175315 63.6931543 13.37304688 63.68554688 C12.67176163 63.68604538 11.97047638 63.68654388 11.24794006 63.6870575 C9.76772218 63.68471983 8.28750012 63.67500925 6.80737305 63.65844727 C4.53788878 63.63481442 2.26957637 63.63789291 0 63.64453125 C-11.12516254 63.60139996 -11.12516254 63.60139996 -13.40429688 61.32226562 C-13.65826416 58.85534668 -13.65826416 58.85534668 -13.66308594 55.7109375 C-13.66939026 54.53631958 -13.67569458 53.36170166 -13.68218994 52.15148926 C-13.67814148 50.87753296 -13.67409302 49.60357666 -13.66992188 48.29101562 C-13.67183533 46.98902222 -13.67374878 45.68702881 -13.67572021 44.34558105 C-13.67867079 41.58824934 -13.67437611 38.83104714 -13.66503906 36.07373047 C-13.65364441 32.53599489 -13.66020426 28.99856276 -13.67218399 25.46083832 C-13.68114081 22.09170629 -13.67487327 18.72265629 -13.66992188 15.35351562 C-13.67397034 14.07955933 -13.6780188 12.80560303 -13.68218994 11.49304199 C-13.67588562 10.31842407 -13.6695813 9.14380615 -13.66308594 7.93359375 C-13.66149475 6.89593872 -13.65990356 5.85828369 -13.65826416 4.78918457 C-12.95783827 -2.01442357 -5.21170102 0.02020531 0 0 Z " fill="#EBE8E5" transform="translate(61.404296875,111.677734375)"/>
<path d="M0 0 C0.69891357 -0.00287018 1.39782715 -0.00574036 2.11791992 -0.00869751 C3.59392101 -0.01073675 5.06994921 -0.00521653 6.54589844 0.00732422 C8.80465138 0.0233817 11.06161518 0.0074728 13.3203125 -0.01171875 C14.75521228 -0.00973629 16.19011095 -0.00589256 17.625 0 C18.93082031 0.00338379 20.23664063 0.00676758 21.58203125 0.01025391 C24.8125 0.3984375 24.8125 0.3984375 26.49311829 1.63749695 C28.18458261 3.89504538 28.17611936 5.15808235 28.15307617 7.96166992 C28.15273628 9.34276192 28.15273628 9.34276192 28.15238953 10.75175476 C28.13690567 11.74246475 28.12142181 12.73317474 28.10546875 13.75390625 C28.10122391 14.77067947 28.09697906 15.7874527 28.09260559 16.83503723 C28.07579997 20.08560562 28.03814382 23.3355562 28 26.5859375 C27.98495562 28.78840251 27.97126679 30.99087723 27.95898438 33.19335938 C27.92589036 38.59526322 27.87567223 43.99680622 27.8125 49.3984375 C26.82975098 49.49785645 25.84700195 49.59727539 24.83447266 49.69970703 C17.3961123 50.52337717 10.78958285 51.55025032 4.1875 55.2734375 C3.53394531 55.61246094 2.88039062 55.95148438 2.20703125 56.30078125 C-1.60591401 58.32664913 -4.81822676 60.68599009 -8.1875 63.3984375 C-8.8475 63.3984375 -9.5075 63.3984375 -10.1875 63.3984375 C-10.25698809 55.62727442 -10.31030502 47.85618402 -10.34293652 40.08478832 C-10.3585975 36.47625447 -10.37984315 32.86793306 -10.41381836 29.25952148 C-10.44639717 25.77765628 -10.46434975 22.29599549 -10.47213173 18.81398964 C-10.48037856 16.83801653 -10.50380038 14.86212575 -10.52738953 12.88627625 C-10.52761612 11.68525772 -10.52784271 10.4842392 -10.52807617 9.24682617 C-10.53473801 8.18759445 -10.54139984 7.12836273 -10.54826355 6.03703308 C-10.1875 3.3984375 -10.1875 3.3984375 -8.86811829 1.55717468 C-6.07600973 -0.36790255 -3.33181414 0.00863377 0 0 Z " fill="#EAE8E6" transform="translate(167.1875,53.6015625)"/>
<path d="M0 0 C2.05078125 0.03255208 4.1015625 0.06510417 6.15234375 0.09765625 C6.15234375 2.40765625 6.15234375 4.71765625 6.15234375 7.09765625 C6.99796875 7.30390625 7.84359375 7.51015625 8.71484375 7.72265625 C12.98763819 9.43177403 16.15524458 11.58865584 19.15234375 15.09765625 C20.15234375 18.41015625 20.15234375 18.41015625 20.15234375 21.09765625 C18.58324616 22.66675384 17.01188118 22.4178449 14.83984375 22.53515625 C12.35546875 22.53125 12.35546875 22.53125 10.15234375 22.09765625 C8.79057794 20.11690598 7.45641259 18.11685962 6.15234375 16.09765625 C3.22348694 15.3904876 1.21724441 15.7021852 -1.84765625 16.09765625 C-4.19652057 18.03840511 -4.19652057 18.03840511 -4.28515625 21.53515625 C-4.14078125 22.71078125 -3.99640625 23.88640625 -3.84765625 25.09765625 C-0.39882824 27.70926876 2.89749452 28.66647128 7.08984375 29.53515625 C13.20536668 30.99266417 17.42563236 32.50758916 21.02734375 37.91015625 C22.39163921 41.77566004 22.77466711 44.01798089 22.15234375 48.09765625 C19.56823966 53.25725075 16.62135683 57.7949139 11.15234375 60.09765625 C8.83984375 60.78515625 8.83984375 60.78515625 7.15234375 61.09765625 C6.82234375 63.07765625 6.49234375 65.05765625 6.15234375 67.09765625 C-0 67.1953125 -0 67.1953125 -1.84765625 67.09765625 C-2.84765625 66.09765625 -2.84765625 66.09765625 -2.91015625 63.03515625 C-2.87921875 61.58109375 -2.87921875 61.58109375 -2.84765625 60.09765625 C-3.54890625 60.01515625 -4.25015625 59.93265625 -4.97265625 59.84765625 C-9.60027782 58.64045062 -12.81016276 56.44639779 -15.72265625 52.66015625 C-16.94206759 49.88260821 -16.93752639 48.08833471 -16.84765625 45.09765625 C-13.46918912 44.81241981 -10.21484556 44.64071941 -6.84765625 45.09765625 C-4.84765625 47.53515625 -4.84765625 47.53515625 -3.84765625 50.09765625 C-1.37521978 51.33387449 -0.07447686 51.08174226 2.65234375 50.78515625 C3.44640625 50.70652344 4.24046875 50.62789062 5.05859375 50.546875 C7.36089284 50.25113205 7.36089284 50.25113205 9.15234375 48.09765625 C9.73579851 45.14019133 9.73579851 45.14019133 9.15234375 42.09765625 C4.66511698 38.77562096 -0.37894552 37.69143216 -5.69140625 36.2578125 C-9.81337694 34.74268218 -12.69178733 32.84196753 -15.13671875 29.15234375 C-16.94975406 23.91247246 -16.60056119 18.66138189 -14.22265625 13.72265625 C-11.64210624 10.8704694 -9.21121119 8.95834622 -5.84765625 7.09765625 C-4.85765625 7.09765625 -3.86765625 7.09765625 -2.84765625 7.09765625 C-2.86828125 6.12828125 -2.88890625 5.15890625 -2.91015625 4.16015625 C-2.82830587 0.14948763 -2.82830587 0.14948763 0 0 Z " fill="#203748" transform="translate(193.84765625,128.90234375)"/>
<path d="M0 0 C7.26 0 14.52 0 22 0 C22 0.33 22 0.66 22 1 C21.41992188 1.17015625 20.83984375 1.3403125 20.2421875 1.515625 C11.37553092 4.20962898 11.37553092 4.20962898 5.30078125 10.92578125 C3.7905001 13.92170027 2.35980158 16.93321347 1 20 C0.67 20 0.34 20 0 20 C0 13.4 0 6.8 0 0 Z " fill="#E7E5E3" transform="translate(0,0)"/>
<path d="M0 0 C0.66 0 1.32 0 2 0 C1.89529184 0.82895232 1.89529184 0.82895232 1.78846836 1.67465115 C1.16019259 6.92291514 0.83716225 12.08245631 0.79467773 17.36547852 C0.78477814 18.1470784 0.77487854 18.92867828 0.76467896 19.73396301 C0.73343692 22.28224807 0.70845637 24.83055168 0.68359375 27.37890625 C0.66299188 29.15966743 0.64199463 30.94042407 0.62062073 32.72117615 C0.5657336 37.3817271 0.51617886 42.04231972 0.46777344 46.70294189 C0.41731301 51.46931616 0.36175575 56.23563081 0.30664062 61.00195312 C0.19946782 70.33458434 0.0979341 79.66726758 0 89 C-0.33 89 -0.66 89 -1 89 C-1.02312241 77.54349984 -1.04091457 66.08700519 -1.05181217 54.63048649 C-1.05704122 49.31134787 -1.06413927 43.99222516 -1.07543945 38.6730957 C-1.08626755 33.54436015 -1.09227667 28.41563994 -1.09487724 23.28689384 C-1.09673163 21.32558386 -1.10035251 19.36427476 -1.10573006 17.40297127 C-1.11293946 14.66584553 -1.11399099 11.92878403 -1.11352539 9.19165039 C-1.11712067 8.37238068 -1.12071594 7.55311096 -1.12442017 6.70901489 C-1.11405216 1.11405216 -1.11405216 1.11405216 0 0 Z " fill="#E7F1F6" transform="translate(103,82)"/>
<path d="M0 0 C4.455 1.98 4.455 1.98 9 4 C9 5.98 9 7.96 9 10 C7.02 10.99 7.02 10.99 5 12 C1.35224614 8.11690718 0.41474367 5.28798182 0 0 Z " fill="#1B374C" transform="translate(177,174)"/>
<path d="M0 0 C0.33 0.99 0.66 1.98 1 3 C1.66 3 2.32 3 3 3 C3 4.65 3 6.3 3 8 C3.66 8.33 4.32 8.66 5 9 C2.03 9 -0.94 9 -4 9 C-4.66 7.35 -5.32 5.7 -6 4 C-4.35 3.67 -2.7 3.34 -1 3 C-0.67 2.01 -0.34 1.02 0 0 Z " fill="#223646" transform="translate(208,142)"/>
<path d="M0 0 C5.33338829 2.35296542 8.51924006 6.85195682 11 12 C10.67 12.99 10.34 13.98 10 15 C9.34 14.67 8.68 14.34 8 14 C7.375 10.9375 7.375 10.9375 7 8 C5.68 8.33 4.36 8.66 3 9 C0 3.375 0 3.375 0 0 Z " fill="#182B3C" transform="translate(235,31)"/>
<path d="M0 0 C-2.62198774 2.15377564 -4.64404172 3.40072174 -8 4 C-8.33 5.98 -8.66 7.96 -9 10 C-11.31 10 -13.62 10 -16 10 C-15.01 9.34 -14.02 8.68 -13 8 C-12.87496094 7.18273437 -12.74992188 6.36546875 -12.62109375 5.5234375 C-12 3 -12 3 -9.78515625 1.6015625 C-8.88667969 1.27929688 -7.98820313 0.95703125 -7.0625 0.625 C-6.16660156 0.28726563 -5.27070313 -0.05046875 -4.34765625 -0.3984375 C-2 -1 -2 -1 0 0 Z " fill="#1F323F" transform="translate(209,186)"/>
<path d="M0 0 C5.36170213 0.59574468 5.36170213 0.59574468 7.875 2.1875 C9.55877549 4.90024939 9.39015561 6.87875511 9 10 C7.9375 11.8125 7.9375 11.8125 6 13 C2.3125 13.6875 2.3125 13.6875 -1 14 C-0.34 13.34 0.32 12.68 1 12 C2.32 12 3.64 12 5 12 C5 8.7 5 5.4 5 2 C3.35 1.67 1.7 1.34 0 1 C0 0.67 0 0.34 0 0 Z " fill="#E5ECEF" transform="translate(195,167)"/>
<path d="M0 0 C1.29349365 0.00523682 2.5869873 0.01047363 3.91967773 0.01586914 C4.9496714 0.01799156 4.9496714 0.01799156 6.00047302 0.02015686 C8.20144949 0.0257706 10.40232557 0.03832532 12.60327148 0.05102539 C14.09220231 0.05603863 15.58113473 0.06060184 17.07006836 0.06469727 C20.72700223 0.07574446 24.38387707 0.09301826 28.04077148 0.11352539 C24.67458973 2.1558491 22.22259151 2.30823657 18.32202148 2.16821289 C17.2250293 2.1437207 16.12803711 2.11922852 14.99780273 2.09399414 C12.69286389 2.02367397 10.38815003 1.94554629 8.08374023 1.85961914 C6.98674805 1.83770508 5.88975586 1.81579102 4.75952148 1.79321289 C3.75856445 1.75953613 2.75760742 1.72585937 1.72631836 1.69116211 C-1.66520098 2.2245556 -2.80681128 3.51897965 -4.95922852 6.11352539 C-3.88870554 0.14918308 -3.88870554 0.14918308 0 0 Z " fill="#E9EEF2" transform="translate(52.959228515625,111.886474609375)"/>
<path d="M0 0 C0.66 0 1.32 0 2 0 C2.33 0.99 2.66 1.98 3 3 C6.34137482 6.91418193 9.01256118 8.72414356 14 10 C14 10.66 14 11.32 14 12 C14.99 12.33 15.98 12.66 17 13 C10.5189465 12.38275681 6.34039508 9.7316101 2.125 4.875 C0 2 0 2 0 0 Z " fill="#152635" transform="translate(3,194)"/>
<path d="M0 0 C2.64 0 5.28 0 8 0 C8 1.98 8 3.96 8 6 C7.34 5.34 6.68 4.68 6 4 C5.67 4.66 5.34 5.32 5 6 C3.68 5.67 2.36 5.34 1 5 C0.67 3.35 0.34 1.7 0 0 Z " fill="#1E384A" transform="translate(191,130)"/>
<path d="M0 0 C0.33 0.66 0.66 1.32 1 2 C1.66 2.33 2.32 2.66 3 3 C3.33 3.99 3.66 4.98 4 6 C4.66 6 5.32 6 6 6 C5.34 7.32 4.68 8.64 4 10 C3.34 9.67 2.68 9.34 2 9 C2 8.34 2 7.68 2 7 C0.68 6.34 -0.64 5.68 -2 5 C-1.34 3.35 -0.68 1.7 0 0 Z " fill="#213A4D" transform="translate(233,194)"/>
<path d="M0 0 C0.84755859 0.09345703 1.69511719 0.18691406 2.56835938 0.28320312 C3.44943359 0.38697266 4.33050781 0.49074219 5.23828125 0.59765625 C6.13095703 0.69755859 7.02363281 0.79746094 7.94335938 0.90039062 C10.14656346 1.14780927 12.34889906 1.40127904 14.55078125 1.66015625 C14.55078125 1.99015625 14.55078125 2.32015625 14.55078125 2.66015625 C7.62078125 2.66015625 0.69078125 2.66015625 -6.44921875 2.66015625 C-6.77921875 2.00015625 -7.10921875 1.34015625 -7.44921875 0.66015625 C-4.42059919 -0.3493836 -3.08836884 -0.35236423 0 0 Z " fill="#D8DCDE" transform="translate(184.44921875,218.33984375)"/>
<path d="M0 0 C1.485 0.99 1.485 0.99 3 2 C2.67 2.99 2.34 3.98 2 5 C2.66 5 3.32 5 4 5 C4.33 5.99 4.66 6.98 5 8 C6.49985609 9.66710346 6.49985609 9.66710346 8 11 C7.01 11.33 6.02 11.66 5 12 C1.35224614 8.11690718 0.41474367 5.28798182 0 0 Z " fill="#31404B" transform="translate(177,174)"/>
<path d="M0 0 C0.33 0 0.66 0 1 0 C1.10832169 2.08218362 1.18573541 4.16599129 1.25 6.25 C1.29640625 7.41015625 1.3428125 8.5703125 1.390625 9.765625 C0.93035506 13.57666013 -0.05148444 14.65511755 -3 17 C-2.25339288 11.27601207 -1.17122859 5.65146223 0 0 Z " fill="#DCDEDE" transform="translate(253,169)"/>
<path d="M0 0 C0.9796875 -0.01417969 1.959375 -0.02835937 2.96875 -0.04296875 C5.5 0.1875 5.5 0.1875 7.5 2.1875 C5.56403108 2.40961116 3.62610672 2.61472992 1.6875 2.8125 C0.06908203 2.98652344 0.06908203 2.98652344 -1.58203125 3.1640625 C-4.5 3.1875 -4.5 3.1875 -7.5 1.1875 C-4.89820337 -0.11339831 -2.9030812 0.01909922 0 0 Z " fill="#E9EDF1" transform="translate(185.5,100.8125)"/>
<path d="M0 0 C-1.485 2.475 -1.485 2.475 -3 5 C-4.98 4.34 -6.96 3.68 -9 3 C-9 2.01 -9 1.02 -9 0 C-2.25 -1.125 -2.25 -1.125 0 0 Z " fill="#EDEEEF" transform="translate(202,196)"/>
<path d="M0 0 C0.33 0.99 0.66 1.98 1 3 C-0.48117801 2.71872579 -1.95993249 2.42466268 -3.4375 2.125 C-4.26121094 1.96257812 -5.08492187 1.80015625 -5.93359375 1.6328125 C-6.61550781 1.42398438 -7.29742187 1.21515625 -8 1 C-8.33 0.34 -8.66 -0.32 -9 -1 C-5.19881294 -2.26706235 -3.6149628 -1.57172296 0 0 Z " fill="#D8DCE1" transform="translate(200,156)"/>
<path d="M0 0 C0.66 0.66 1.32 1.32 2 2 C1.34 4.31 0.68 6.62 0 9 C0.66 9.33 1.32 9.66 2 10 C0.68 9.67 -0.64 9.34 -2 9 C-2.125 5.625 -2.125 5.625 -2 2 C-1.34 1.34 -0.68 0.68 0 0 Z " fill="#E7EBEE" transform="translate(191,145)"/>
<path d="M0 0 C0.33 0.99 0.66 1.98 1 3 C1.66 3 2.32 3 3 3 C3 4.65 3 6.3 3 8 C3.66 8.33 4.32 8.66 5 9 C2.36 9 -0.28 9 -3 9 C-3 8.67 -3 8.34 -3 8 C-1.35 8 0.3 8 2 8 C1.2265625 6.8553125 1.2265625 6.8553125 0.4375 5.6875 C-0.036875 4.800625 -0.51125 3.91375 -1 3 C-0.67 2.01 -0.34 1.02 0 0 Z " fill="#162C3C" transform="translate(208,142)"/>
<path d="M0 0 C0.99 0.33 1.98 0.66 3 1 C2.6875 3.375 2.6875 3.375 2 6 C1.01 6.66 0.02 7.32 -1 8 C-0.67 5.36 -0.34 2.72 0 0 Z " fill="#1B303E" transform="translate(212,175)"/>
<path d="M0 0 C2.5 1.3125 2.5 1.3125 5 3 C5 3.99 5 4.98 5 6 C2.5625 5.1875 2.5625 5.1875 0 4 C-0.33 3.01 -0.66 2.02 -1 1 C-0.67 0.67 -0.34 0.34 0 0 Z " fill="#DADFE2" transform="translate(223,125)"/>
<path d="M0 0 C0.66 0.99 1.32 1.98 2 3 C0.02 3.66 -1.96 4.32 -4 5 C-4 4.01 -4 3.02 -4 2 C-2.68 1.34 -1.36 0.68 0 0 Z " fill="#293E49" transform="translate(218,202)"/>
<path d="M0 0 C0.66 0.99 1.32 1.98 2 3 C1.34 3 0.68 3 0 3 C-0.66 4.65 -1.32 6.3 -2 8 C-2.66 8 -3.32 8 -4 8 C-2.87548273 5.0280615 -1.77706209 2.66559313 0 0 Z " fill="#273947" transform="translate(238,181)"/>
<path d="M0 0 C1.32 0.99 2.64 1.98 4 3 C2.02 3.66 0.04 4.32 -2 5 C-1.125 1.125 -1.125 1.125 0 0 Z " fill="#ECECEE" transform="translate(212,183)"/>
<path d="M0 0 C0.66 0.33 1.32 0.66 2 1 C1.67 2.65 1.34 4.3 1 6 C0.01 6 -0.98 6 -2 6 C-1.125 1.125 -1.125 1.125 0 0 Z " fill="#EFE9E4" transform="translate(199,173)"/>
</svg>
